<?xml version="1.0" encoding="UTF-8"?>
<svg id="Layer_1" data-name="Layer 1" xmlns="http://www.w3.org/2000/svg" xmlns:xlink="http://www.w3.org/1999/xlink" viewBox="0 0 132.44 47.37">
  <defs>
    <style>
      .cls-1 {
        fill: url(#linear-gradient);
      }

      .cls-1, .cls-2, .cls-3, .cls-4 {
        stroke-width: 0px;
      }

      .cls-2 {
        fill: #fff;
      }

      .cls-3 {
        fill: #281241;
      }

      .cls-4 {
        fill: #ec9a36;
      }
    </style>
    <linearGradient id="linear-gradient" x1="193.4" y1="1.97" x2="223.4" y2="1.97" gradientTransform="translate(-166.82 3.95) scale(1 -1)" gradientUnits="userSpaceOnUse">
      <stop offset="0" stop-color="#fff"/>
      <stop offset=".04" stop-color="#fdf6ed"/>
      <stop offset=".17" stop-color="#f8debd"/>
      <stop offset=".3" stop-color="#f4c993"/>
      <stop offset=".43" stop-color="#f1b871"/>
      <stop offset=".57" stop-color="#efaa57"/>
      <stop offset=".7" stop-color="#eda144"/>
      <stop offset=".85" stop-color="#ec9b39"/>
      <stop offset="1" stop-color="#ec9a36"/>
    </linearGradient>
  </defs>
  <g>
    <path class="cls-3" d="m66.01,9.1v16.14h-5.11c-.01-.27-.04-.53-.04-.79,0-7.84,0-15.68,0-23.53,0-.49.15-.66.64-.65,1.8.02,3.6.03,5.4,0,.4,0,.57.16.71.49.88,2.14,1.77,4.27,2.65,6.4,1.06,2.58,2.1,5.16,3.16,7.75.23.58.47,1.15.72,1.72.06.13.18.24.28.36.1-.1.26-.19.31-.32,1.05-2.54,2.1-5.09,3.14-7.64,1.14-2.78,2.27-5.55,3.41-8.33.12-.29.29-.44.64-.43,1.84.02,3.67.02,5.51,0,.43,0,.55.17.55.57-.01,1.94,0,3.89,0,5.83,0,5.97,0,11.94,0,17.91,0,.21-.02.42-.03.66h-5.16c0-5.34,0-10.66,0-15.98,0-.03-.08-.06-.17-.14-.4,1.01-.79,1.99-1.19,2.98-1.68,4.19-3.36,8.38-5.04,12.57-.12.31-.29.44-.63.44-.87-.02-1.75-.02-2.62,0-.37,0-.53-.15-.66-.48-1.58-3.98-3.17-7.95-4.75-11.93-.44-1.11-.87-2.21-1.32-3.32-.05-.13-.16-.23-.24-.34l-.13.05Z"/>
    <path class="cls-3" d="m23.97,25.27c-1,0-1.94,0-2.89,0-.73,0-1.46-.03-2.19.01-.41.02-.6-.13-.72-.51-.48-1.56-1-3.11-1.49-4.67-.12-.4-.3-.58-.75-.57-2.64.02-5.27.01-7.91,0-.4,0-.55.16-.67.52-.55,1.74-1.13,3.47-1.7,5.21H0c.28-.82.54-1.6.81-2.38,1.45-4.22,2.9-8.45,4.36-12.67,1.1-3.18,2.22-6.36,3.32-9.55.1-.3.25-.38.54-.38,2,0,3.99,0,5.99,0,.31,0,.45.1.56.42,1.02,2.97,2.07,5.93,3.09,8.9,1.39,4.04,2.76,8.09,4.14,12.14.32.94.66,1.87.99,2.81.07.21.11.44.18.72Zm-15.09-9.88h6.22c-.04-.21-.06-.37-.11-.52-.9-2.79-1.81-5.57-2.72-8.35-.05-.14-.14-.26-.22-.39-.09.13-.23.25-.27.39-.66,2-1.31,4.01-1.97,6.02-.3.92-.6,1.84-.93,2.85Z"/>
    <path class="cls-3" d="m108.07,25.25h-4.93v-2.57c-.48.56-.81,1.06-1.24,1.45-1.65,1.46-3.63,1.7-5.71,1.39-1.75-.25-3.23-.98-4.17-2.55-.61-1.01-.76-2.14-.7-3.29.15-3.36,2.57-4.65,5.15-5.12,1.64-.3,3.31-.46,4.96-.71.67-.1,1.34-.31,1.45-1.12.11-.87-.2-1.62-.92-2.15-1.22-.88-4.12-.72-4.99,1.26-.14.33-.35.41-.71.38-1.22-.12-2.45-.21-3.67-.3-.59-.04-.62-.07-.45-.63.73-2.41,2.41-3.82,4.75-4.56,1.65-.52,3.34-.55,5.02-.33,1.72.22,3.36.78,4.63,2.08,1.02,1.04,1.56,2.31,1.58,3.74.04,4.26.02,8.52.02,12.78,0,.07-.02.14-.03.25Zm-5.06-8.51c-.22,0-.29-.03-.36-.01-.95.2-1.9.41-2.85.62-.71.16-1.43.29-2.1.54-.89.33-1.44,1-1.42,1.98.01.95.48,1.67,1.42,1.89.69.16,1.45.25,2.15.17,1.34-.16,2.42-.88,2.83-2.19.29-.94.23-1.98.34-3Z"/>
    <path class="cls-3" d="m32.02,9.73c.08-.11.19-.21.25-.33,1.33-2.49,3.52-3.26,6.18-3.07,3.43.25,5.45,2.85,5.66,5.88.07,1.01.06,2.03.07,3.04,0,3.15,0,6.31.01,9.46,0,.44-.12.58-.57.57-1.37-.03-2.74-.01-4.12-.01-.16,0-.31-.02-.54-.03,0-.26,0-.48,0-.71,0-3.56,0-7.13-.02-10.69,0-1.91-1.31-3.1-2.92-3.21-2.07-.13-3.57,1.03-3.8,2.91-.06.49-.1.99-.1,1.49,0,3.21-.01,6.42,0,9.62,0,.48-.11.64-.62.63-1.37-.04-2.74-.03-4.12,0-.38,0-.49-.12-.49-.49,0-5.9,0-11.8-.01-17.7,0-.41.13-.57.55-.56,1.32.02,2.64.02,3.96,0,.37,0,.5.12.49.49-.02.88,0,1.76,0,2.65.04.02.09.03.13.05Z"/>
    <path class="cls-3" d="m126.64,25.25h-5.18c0-.23,0-.44,0-.64,0-7.91,0-15.83-.01-23.74,0-.47.14-.61.61-.6,1.34.03,2.67.03,4.01,0,.44,0,.59.12.58.57-.02,1.75,0,3.49,0,5.24,0,6.19,0,12.37,0,18.56,0,.19,0,.38,0,.62Z"/>
    <path class="cls-3" d="m112.14,25.27c0-.3,0-.53,0-.76,0-7.84,0-15.68,0-23.51,0-.71,0-.72.71-.72,1.23,0,2.46,0,3.69,0,.8,0,.8,0,.8.8,0,5.17,0,10.33,0,15.5,0,2.69-.01,5.38,0,8.07,0,.46-.1.66-.62.64-1.49-.04-2.99-.01-4.58-.01Z"/>
    <path class="cls-3" d="m57.08,10.44c-.98,0-1.87,0-2.75,0-.94,0-.78-.08-.78.8,0,2.73,0,5.45,0,8.18,0,.3,0,.61.08.9.19.74.92,1.1,1.95,1q.98-.09,1.19.86c.18.81.35,1.63.54,2.44.07.3-.01.45-.32.54-1.46.41-2.94.48-4.43.23-1.09-.18-2.07-.6-2.87-1.4-.93-.92-1.34-2.05-1.35-3.32-.02-4.54,0-9.08-.01-13.63,0-.41.15-.51.53-.51,2.56.01,5.13,0,7.69,0,.25,0,.53-.02.53.35,0,1.15,0,2.31,0,3.54Z"/>
  </g>
  <g>
    <path class="cls-4" d="m.46,29.57h1.62v5.65l3.48-5.65h1.73v8.48h-1.62v-5.54l-3.48,5.54H.46v-8.48Z"/>
    <path class="cls-4" d="m9.07,38.05v-8.48h2.79c1.06,0,1.74.04,2.06.13.49.13.91.4,1.24.83.33.43.5.98.5,1.65,0,.52-.1.96-.29,1.31-.19.35-.44.63-.73.84-.3.2-.6.34-.9.4-.41.08-1.01.12-1.8.12h-1.13v3.2h-1.74Zm1.74-7.04v2.41h.95c.68,0,1.14-.04,1.37-.13.23-.09.41-.23.54-.42.13-.19.2-.41.2-.66,0-.31-.09-.56-.28-.76-.18-.2-.42-.33-.7-.38-.21-.04-.62-.06-1.25-.06h-.84Z"/>
    <path class="cls-4" d="m19.7,33.11h2.7c-.07-.63-.28-1.16-.64-1.58-.36-.42-.84-.63-1.46-.63-.47,0-.86.13-1.17.38-.32.25-.54.59-.67,1.01l-1.72-.39c.18-.75.56-1.35,1.16-1.81.6-.45,1.38-.68,2.34-.68,1.25,0,2.23.41,2.93,1.23.7.82,1.06,1.89,1.06,3.2,0,.89-.16,1.66-.49,2.31-.33.64-.78,1.14-1.35,1.5-.57.35-1.26.53-2.06.53-1.96,0-3.17-.91-3.62-2.72l1.74-.53c.09.61.31,1.07.67,1.36.35.3.78.44,1.27.44s.94-.18,1.3-.53c.36-.35.6-.91.7-1.68h-2.7v-1.42Z"/>
    <path class="cls-4" d="m28.25,33.11h2.7c-.07-.63-.28-1.16-.64-1.58-.36-.42-.84-.63-1.46-.63-.47,0-.86.13-1.17.38-.32.25-.54.59-.67,1.01l-1.72-.39c.18-.75.56-1.35,1.16-1.81.6-.45,1.38-.68,2.34-.68,1.25,0,2.23.41,2.93,1.23.7.82,1.06,1.89,1.06,3.2,0,.89-.16,1.66-.49,2.31-.33.64-.78,1.14-1.35,1.5-.57.35-1.26.53-2.06.53-1.96,0-3.17-.91-3.62-2.72l1.74-.53c.09.61.31,1.07.67,1.36.35.3.78.44,1.27.44s.94-.18,1.3-.53c.36-.35.6-.91.7-1.68h-2.7v-1.42Z"/>
    <path class="cls-4" d="m34.56,29.57h5.94v7.06h.76v3.27h-1.44v-1.85h-5.41v1.85h-1.44v-3.27h.73c.36-.72.59-1.57.7-2.52.11-.96.17-2.17.17-3.64v-.9Zm1.65,1.42c0,2.58-.24,4.45-.71,5.63h3.27v-5.63h-2.56Z"/>
    <path class="cls-4" d="m48.18,29.57l-2.5,4.93v3.55h-1.65v-3.55l-2.47-4.93h1.81l1.17,2.46c.15.32.26.59.32.82.08-.27.18-.55.32-.82l1.2-2.46h1.81Z"/>
    <path class="cls-4" d="m49.13,29.57h1.62v5.65l3.48-5.65h1.73v8.48h-1.62v-5.54l-3.48,5.54h-1.74v-8.48Zm4.46-2.11h.8c-.05.52-.23.94-.56,1.23-.33.3-.75.45-1.27.45s-.94-.15-1.27-.45c-.33-.3-.51-.71-.56-1.23h.8c.03.27.13.48.29.62.17.14.41.21.73.21s.56-.07.73-.21c.17-.14.27-.35.29-.62Z"/>
    <path class="cls-4" d="m57.83,29.57h5.82v1.42h-4.09v7.06h-1.74v-8.48Z"/>
    <path class="cls-4" d="m67.01,38.05l2.94-4.42-2.66-4.05h2.03l1.72,2.72,1.69-2.72h2.01l-2.67,4.12,2.94,4.36h-2.09l-1.91-2.93-1.91,2.93h-2.08Z"/>
    <path class="cls-4" d="m83.65,38.05h-1.89l-.75-1.93h-3.44l-.71,1.93h-1.84l3.35-8.48h1.84l3.44,8.48Zm-3.2-3.35l-1.18-3.15-1.16,3.15h2.35Z"/>
    <path class="cls-4" d="m84.55,38.05v-8.48h2.6l1.56,5.78,1.54-5.78h2.6v8.48h-1.61v-6.67l-1.71,6.67h-1.67l-1.7-6.67v6.67h-1.61Z"/>
    <path class="cls-4" d="m96.52,38.05v-7.04h-2.55v-1.43h6.83v1.43h-2.55v7.04h-1.74Z"/>
    <path class="cls-4" d="m102.31,29.57h5.94v7.06h.76v3.27h-1.44v-1.85h-5.41v1.85h-1.44v-3.27h.73c.36-.72.59-1.57.7-2.52.11-.96.17-2.17.17-3.64v-.9Zm1.65,1.42c0,2.58-.24,4.45-.71,5.63h3.27v-5.63h-2.56Z"/>
    <path class="cls-4" d="m117.93,38.05h-1.89l-.75-1.93h-3.44l-.71,1.93h-1.84l3.35-8.48h1.84l3.44,8.48Zm-3.2-3.35l-1.18-3.15-1.16,3.15h2.35Z"/>
    <path class="cls-4" d="m126.6,38.05h-1.89l-.75-1.93h-3.44l-.71,1.93h-1.84l3.35-8.48h1.84l3.44,8.48Zm-3.2-3.35l-1.18-3.15-1.16,3.15h2.35Z"/>
  </g>
  <g>
    <path class="cls-3" d="m112.01,44.73c.15.08.31.13.44.24.55.44,1.17.67,1.84.41.55-.21,1.11-.5,1.56-.88,1.32-1.08,1.66-2.9.88-4.29-.7-1.25-2.04-1.36-2.84-.25-.37.51-.24,1.01.29,1.19.19-.36.36-.74.59-1.06.11-.15.38-.32.51-.27.18.06.39.29.42.48.08.41.05.85.07,1.27.02.4-.16.59-.57.57-.42-.02-.85,0-1.34,0,.05.25.04.56.12.59.41.14.84.21,1.26.31-.45,1.41-1.68,1.98-2.87,1.26-.11.14-.23.29-.35.44-.19.06-.38.15-.58.18-.32.05-.78.2-.93.06-.19-.19-.26-.67-.17-.96.29-.96.7-1.89,1.02-2.85.11-.32.16-.7.11-1.04-.07-.57-.63-1.04-1.03-.97-.46.09-1.35,1.26-1.31,1.74,0,.05.04.09.09.18.41-.47.77-.88,1.14-1.3.06.04.11.08.17.11-.09.26-.16.52-.27.76-.33.75-.74,1.46-1,2.23-.18.53-.32,1.17-.19,1.69.17.65.83.99,1.49,1.03.62.04,1.12-.34,1.45-.88Zm-23.76-4.54c.55-1.17,1.04-2.2,1.64-3.47-.32-.25-.72-.6-1.16-.9-.16-.11-.41-.19-.58-.15-.1.02-.17.3-.21.48-.13.7-.11,1.44-.37,2.08-.36.92-.22,2.21-1.75,2.51.81.35.54.81.35,1.28-.35.86-.68,1.72-1.01,2.58-.05.14-.14.34-.08.44.28.46.62.85,1.23.94.05-.2.1-.37.15-.53.29-.99.58-1.97.86-2.96.19-.67.42-1.3,1.33-1.12.06.01.13-.06.2-.06.65-.06,1.31-.12,2.02-.18-.16.67-.34,1.24-.41,1.81-.08.64-.13,1.31-.07,1.95.05.56.61,1.04.92,1.06.31-1.44.61-2.86.93-4.27.05-.21.19-.53.33-.55.6-.1.39-.45.32-.79-.04-.19-.09-.42-.02-.59.46-1.03.96-2.04,1.46-3.11-.1-.06-.28-.21-.48-.32-.73-.4-.81-.39-1.17.35-.44.93-.82,1.89-1.24,2.83-.07.15-.18.38-.3.4-.91.12-1.82.2-2.91.3Zm18.19,4.98s-.15.17-.24.34c-.09.17-.14.36-.2.55-.13.46.07,1.1.39,1.23.5.21.96-.02,1.25-.6.23-.47.21-.95-.04-1.38-.48-.84-.42-1.67-.06-2.51.37-.85.75-1.69,1.15-2.52.23-.49-.17-.59-.45-.73-.27-.13-.59-.24-.8.11-.19.32-.41.64-.52.99-.45,1.39-1.41,2.45-2.27,3.58-.11.15-.3.23-.46.34-.04-.04-.08-.07-.12-.11.19-1.85,1.14-3.41,2.07-4.96-.89-.51-1.13-.46-1.7.32-.79,1.08-1.28,2.3-1.59,3.58-.1.4-.08.94.11,1.28.45.78,1.23.78,1.82.08.35-.43.69-.87,1-1.28.22.55.41,1.04.66,1.68Zm19.76-1.46l-.15-.15c-.15.12-.3.26-.46.37-.42.29-.82.63-1.27.85-.6.3-.94.18-1.11-.26-.22-.58-.08-.9.5-1.15,1.31-.58,2.46-1.28,2.72-2.87.13-.77-.65-1.51-1.4-1.29-1.74.52-3.29,2.82-3.13,4.64.1,1.07,1.35,1.96,2.21,1.55.4-.19.79-.42,1.13-.7.35-.29.64-.65.95-.98Zm-25.83-.74s.1.09.15.14c-.38.42-.73.89-1.15,1.26-.59.53-.91.51-1.57.1-.1-.06-.24-.03-.37-.05.02.14,0,.37.06.41.44.24.9.58,1.36.61,1.27.08,2.68-1.04,3.2-2.42.51-1.34.22-2.51-.72-3.55-.29-.32-1.12-.46-1.5-.29-.42.2-1.02,1.06-1,1.44.02.35.2.55.46.56.26-.43.45-.83.72-1.17.27-.34.64-.27.74.12.13.5.12,1.04.15,1.57.02.33-.17.48-.5.47-.44-.01-.88,0-1.32,0-.12.73-.1.74,1.27.82Zm-4.29.05c-.33.42-.57.82-.9,1.14-.76.74-.99.75-1.9.27-.08-.04-.21,0-.32.01.02.13,0,.33.07.37.44.24.9.63,1.35.63,1.32.02,2.26-.74,2.93-1.83.83-1.33.72-2.82-.24-3.84-.82-.87-1.94-.74-2.54.29-.29.5-.13.94.4,1.12.12-.29.2-.62.39-.86.17-.22.45-.34.69-.5.16.25.41.49.47.77.08.34.01.71.01,1.06,0,.35-.16.53-.52.52-.44,0-.88,0-1.32,0q-.11.66,1.42.86Zm20.76,1.29c-.06.02-.11.05-.17.07.04.16.02.37.12.47.5.49,1.1.76,1.8.58,1.44-.36,2.44-1.27,2.86-2.68.33-1.1.23-2.19-.69-3.05-.87-.81-1.91-.65-2.49.4-.27.49-.14.87.36,1.07.22-.38.4-.79.66-1.13.3-.38.69-.34.8.12.13.55.1,1.15.09,1.73,0,.1-.28.24-.44.26-.33.04-.68,0-1.01.02-.13.01-.36.1-.37.18-.02.16.03.4.14.47.18.12.42.15.64.17.18.02.37-.03.65-.06-.35.82-.87,1.36-1.54,1.74-.55.31-.97-.06-1.4-.36Zm11.62-.69s.07-.04.07-.06c.63-2.68,1.73-5.11,3.77-7.03.08-.07.16-.28.13-.31-.35-.36-.71-.73-1.12-1-.08-.05-.54.28-.66.52-.78,1.57-1.56,3.15-2.24,4.77-.31.74-.43,1.57-.56,2.37-.07.42.19.69.62.74Zm-1.69,1.56c-.02.39.31.8.67.83.3.03,1-.77,1.02-1.18.02-.27-.65-.82-1.01-.83-.36-.01-.65.48-.68,1.17Z"/>
    <path class="cls-3" d="m88.25,40.19c1.08-.11,2-.18,2.91-.3.12-.02.23-.24.3-.4.42-.94.8-1.9,1.24-2.83.35-.74.43-.75,1.17-.35.2.11.38.25.48.32-.51,1.07-1,2.08-1.46,3.11-.07.16-.02.39.02.59.07.34.28.69-.32.79-.14.02-.28.35-.33.55-.32,1.41-.62,2.83-.93,4.27-.31-.02-.87-.5-.92-1.06-.06-.64-.01-1.31.07-1.95.07-.58.25-1.14.41-1.81-.71.06-1.37.12-2.02.18-.07,0-.14.07-.2.06-.91-.18-1.14.45-1.33,1.12-.29.99-.58,1.97-.86,2.96-.05.17-.09.34-.15.53-.61-.09-.96-.48-1.23-.94-.06-.1.03-.3.08-.44.33-.86.67-1.72,1.01-2.58.19-.46.46-.93-.35-1.28,1.52-.31,1.38-1.59,1.75-2.51.25-.64.24-1.39.37-2.08.03-.17.11-.46.21-.48.18-.04.42.04.58.15.44.3.84.65,1.16.9-.6,1.27-1.09,2.31-1.64,3.47Z"/>
    <path class="cls-3" d="m106.44,45.17c-.25-.64-.44-1.13-.66-1.68-.32.41-.65.85-1,1.28-.58.7-1.37.7-1.82-.08-.2-.34-.21-.88-.11-1.28.31-1.28.8-2.5,1.59-3.58.57-.77.81-.82,1.7-.32-.94,1.55-1.88,3.11-2.07,4.96.04.04.08.07.12.11.15-.11.35-.2.46-.34.86-1.13,1.82-2.18,2.27-3.58.11-.35.33-.67.52-.99.21-.35.53-.24.8-.11.28.14.68.24.45.73-.39.83-.78,1.67-1.15,2.52-.36.84-.42,1.67.06,2.51.25.43.28.91.04,1.38-.29.58-.74.81-1.25.6-.32-.13-.53-.77-.39-1.23.05-.19.11-.38.2-.55.09-.17.22-.31.24-.34Zm.59.04c-.38.5-.53.97-.41,1.49.02.1.13.2.23.24.05.02.19-.09.22-.17.19-.48.27-.97-.04-1.56Z"/>
    <path class="cls-3" d="m126.2,43.71c-.31.33-.6.7-.95.98-.34.28-.73.51-1.13.7-.86.41-2.11-.47-2.21-1.55-.17-1.82,1.38-4.12,3.13-4.64.75-.23,1.53.51,1.4,1.29-.26,1.58-1.42,2.29-2.72,2.87-.58.26-.72.57-.5,1.15.17.44.51.56,1.11.26.45-.23.85-.56,1.27-.85.16-.11.3-.25.46-.37l.15.15Zm-.63-3.28c-1,.13-2.18,1.52-2.19,2.57,1.14-.3,2.3-1.67,2.19-2.57Z"/>
    <path class="cls-3" d="m100.37,42.97c-1.37-.08-1.39-.09-1.27-.82.43,0,.88,0,1.32,0,.34,0,.52-.14.5-.47-.02-.53-.02-1.07-.15-1.57-.1-.39-.47-.45-.74-.12-.27.34-.46.74-.72,1.17-.27-.01-.44-.21-.46-.56-.03-.38.57-1.24,1-1.44.37-.18,1.21-.03,1.5.29.95,1.04,1.23,2.22.72,3.55-.53,1.38-1.93,2.5-3.2,2.42-.47-.03-.92-.37-1.36-.61-.07-.04-.04-.27-.06-.41.12.01.27-.01.37.05.66.41.98.43,1.57-.1.42-.38.77-.84,1.15-1.26-.05-.05-.1-.09-.15-.14Z"/>
    <path class="cls-3" d="m112.03,44.75c.12-.15.23-.3.35-.44,1.19.73,2.42.16,2.87-1.26-.42-.09-.85-.16-1.26-.31-.09-.03-.08-.34-.12-.59.5,0,.92-.01,1.34,0,.41.02.59-.17.57-.57-.02-.43,0-.86-.07-1.27-.03-.19-.24-.42-.42-.48-.13-.04-.41.12-.51.27-.23.33-.39.7-.59,1.06-.53-.18-.66-.68-.29-1.19.81-1.12,2.14-1,2.84.25.78,1.38.43,3.2-.88,4.29-.46.37-1.01.66-1.56.88-.66.26-1.29.02-1.84-.41-.13-.1-.29-.16-.44-.24h.01Z"/>
    <path class="cls-3" d="m96.08,43.01q-1.53-.21-1.42-.86c.43,0,.87,0,1.32,0,.36,0,.52-.17.52-.52,0-.36.07-.73-.01-1.06-.07-.28-.31-.51-.47-.77-.23.16-.52.29-.69.5-.19.24-.26.57-.39.86-.53-.18-.69-.62-.4-1.12.6-1.03,1.72-1.16,2.54-.29.96,1.02,1.07,2.52.24,3.84-.68,1.08-1.61,1.84-2.93,1.83-.45,0-.91-.39-1.35-.63-.07-.04-.05-.24-.07-.37.11,0,.24-.06.32-.01.91.48,1.14.47,1.9-.27.33-.32.57-.72.9-1.14Z"/>
    <path class="cls-3" d="m116.84,44.31c.43.3.85.67,1.4.36.67-.38,1.19-.92,1.54-1.74-.28.03-.47.08-.65.06-.22-.02-.47-.05-.64-.17-.11-.07-.16-.32-.14-.47,0-.08.24-.17.37-.18.34-.03.68.02,1.01-.02.16-.02.44-.17.44-.26.01-.58.04-1.17-.09-1.73-.11-.46-.5-.5-.8-.12-.26.34-.44.75-.66,1.13-.5-.19-.63-.57-.36-1.07.58-1.04,1.62-1.2,2.49-.4.93.86,1.02,1.96.69,3.05-.42,1.41-1.42,2.32-2.86,2.68-.69.17-1.3-.09-1.8-.58-.1-.1-.08-.31-.12-.47.06-.02.11-.05.17-.07Z"/>
    <path class="cls-3" d="m128.46,43.61c-.42-.05-.69-.32-.62-.74.14-.8.25-1.63.56-2.37.68-1.62,1.46-3.19,2.24-4.77.12-.24.58-.58.66-.52.42.27.77.64,1.12,1,.03.03-.05.24-.13.31-2.04,1.92-3.14,4.35-3.77,7.03,0,.01-.03.02-.07.06Z"/>
    <path class="cls-3" d="m112.01,44.73c-.33.54-.83.92-1.45.88-.65-.04-1.32-.38-1.49-1.03-.13-.52,0-1.16.19-1.69.26-.77.67-1.49,1-2.23.11-.25.18-.51.27-.76-.06-.04-.11-.08-.17-.11-.36.41-.73.83-1.14,1.3-.04-.09-.09-.13-.09-.18-.03-.49.85-1.65,1.31-1.74.4-.08.95.39,1.03.97.04.34,0,.71-.11,1.04-.32.96-.73,1.88-1.02,2.85-.09.29-.02.77.17.96.15.15.61,0,.93-.06.2-.03.39-.12.58-.18,0,0-.01-.01-.01-.01Z"/>
    <path class="cls-3" d="m126.77,45.18c.04-.69.32-1.19.68-1.17.36.01,1.03.57,1.01.83-.03.41-.72,1.21-1.02,1.18-.36-.04-.69-.45-.67-.83Z"/>
    <path class="cls-3" d="m107.03,45.21c.3.58.23,1.07.04,1.56-.03.08-.17.19-.22.17-.09-.04-.21-.14-.23-.24-.12-.52.03-.99.41-1.49Z"/>
    <path class="cls-2" d="m125.57,40.43c.12.61-1.05,1.55-2.19,1.75,0-.72,1.19-1.67,2.19-1.75Z"/>
  </g>
  <rect class="cls-1" x="26.84" width="30.04" height="3.95" transform="translate(83.73 3.95) rotate(180)"/>
</svg>