<?xml version="1.0" encoding="UTF-8"?>
<svg id="Layer_1" data-name="Layer 1" xmlns="http://www.w3.org/2000/svg" viewBox="0 0 550.92 120">
  <defs>
    <style>
      .cls-1 {
        letter-spacing: 0em;
      }

      .cls-2 {
        fill: #b7b7b7;
      }

      .cls-2, .cls-3 {
        stroke-width: 0px;
      }

      .cls-4 {
        letter-spacing: 0em;
      }

      .cls-5 {
        letter-spacing: -.03em;
      }

      .cls-3 {
        fill: #f47421;
      }

      .cls-6 {
        fill: #231f20;
        font-family: Calibri-Bold, Calibri;
        font-size: 30px;
        font-weight: 700;
      }

      .cls-7 {
        letter-spacing: -.02em;
      }

      .cls-8 {
        letter-spacing: -.02em;
      }

      .cls-9 {
        letter-spacing: -.01em;
      }

      .cls-10 {
        fill: #4a494a;
        font-family: Calibri, Calibri;
        font-size: 16px;
      }
    </style>
  </defs>
  <g>
    <text transform="translate(30.35 67)"><tspan class="cls-6"><tspan x="0" y="0">0%</tspan></tspan><tspan class="cls-10"><tspan class="cls-5" x="-20.35" y="32">У</tspan><tspan x="-12.46" y="32">рь</tspan><tspan class="cls-4" x="3.46" y="32">д</tspan><tspan x="12.3" y="32">чил</tspan><tspan class="cls-1" x="36.62" y="32">г</tspan><tspan x="42.09" y="32">аа</tspan></tspan><tspan class="cls-10"><tspan class="cls-9" x="-15.95" y="48">т</tspan><tspan class="cls-8" x="-9.94" y="48">ө</tspan><tspan x="-1.85" y="48">лбөргүй</tspan></tspan></text>
    <g>
      <path class="cls-2" d="m54.67,8.29c10.68,1.51,20.03,7.14,26.39,15.24.36.46.9.73,1.48.73h5.22c1.5,0,2.43-1.69,1.58-2.93C81.17,9.3,67.78,1.1,52.42,0c-1.5-.11-2.5,1.53-1.75,2.84l2.62,4.53c.29.5.8.84,1.38.92Z"/>
      <path class="cls-2" d="m16.72,23.53c6.36-8.1,15.72-13.72,26.39-15.24.58-.08,1.09-.41,1.38-.92l2.62-4.53c.75-1.3-.25-2.95-1.75-2.84C30,1.1,16.61,9.3,8.44,21.33c-.85,1.24.08,2.93,1.58,2.93h5.22c.58,0,1.12-.27,1.48-.73Z"/>
      <path class="cls-2" d="m89.55,70.18c.75,1.3,2.67,1.26,3.33-.09,3.13-6.45,4.9-13.68,4.9-21.33s-1.77-14.88-4.9-21.33c-.66-1.35-2.58-1.39-3.33-.09l-2.61,4.52c-.29.5-.33,1.11-.11,1.65,1.9,4.71,2.94,9.86,2.94,15.25s-1.05,10.54-2.94,15.25c-.22.54-.18,1.15.11,1.65l2.61,4.52Z"/>
      <path class="cls-2" d="m10.83,65.67c.29-.5.33-1.11.11-1.65-1.9-4.71-2.94-9.86-2.94-15.25s1.05-10.54,2.94-15.25c.22-.54.18-1.15-.11-1.65l-2.61-4.52c-.75-1.3-2.67-1.26-3.33.09C1.77,33.88,0,41.12,0,48.77s1.77,14.88,4.9,21.33c.66,1.35,2.58,1.39,3.33.09l2.61-4.52Z"/>
    </g>
  </g>
  <g>
    <text transform="translate(136.04 74.11)"><tspan class="cls-6"><tspan x="0" y="0">25%</tspan></tspan><tspan class="cls-10"><tspan x="-2.6" y="32">15 </tspan><tspan class="cls-7" x="17.24" y="32">х</tspan><tspan x="23.92" y="32">оног</tspan></tspan></text>
    <g>
      <path class="cls-2" d="m167.95,10.07c10.68,1.51,20.03,7.14,26.39,15.24.36.46.9.73,1.48.73h5.22c1.5,0,2.43-1.69,1.58-2.93-8.17-12.03-21.56-20.23-36.92-21.32-1.5-.11-2.5,1.53-1.75,2.84l2.62,4.53c.29.5.8.84,1.38.92Z"/>
      <path class="cls-2" d="m130,25.31c6.36-8.1,15.72-13.72,26.39-15.24.58-.08,1.09-.41,1.38-.92l2.62-4.53c.75-1.3-.25-2.95-1.75-2.84-15.36,1.1-28.75,9.3-36.92,21.32-.85,1.24.08,2.93,1.58,2.93h5.22c.58,0,1.12-.27,1.48-.73Z"/>
      <path class="cls-2" d="m202.84,71.96c.75,1.3,2.67,1.26,3.33-.09,3.13-6.45,4.9-13.68,4.9-21.33s-1.77-14.88-4.9-21.33c-.66-1.35-2.58-1.39-3.33-.09l-2.61,4.52c-.29.5-.33,1.11-.11,1.65,1.9,4.71,2.94,9.86,2.94,15.25s-1.05,10.54-2.94,15.25c-.22.54-.18,1.15.11,1.65l2.61,4.52Z"/>
      <path class="cls-3" d="m124.12,67.44c.29-.5.33-1.11.11-1.65-1.9-4.71-2.94-9.86-2.94-15.25s1.05-10.54,2.94-15.25c.22-.54.18-1.15-.11-1.65l-2.61-4.52c-.75-1.3-2.67-1.26-3.33.09-3.13,6.45-4.9,13.68-4.9,21.33s1.77,14.88,4.9,21.33c.66,1.35,2.58,1.39,3.33.09l2.61-4.52Z"/>
    </g>
  </g>
  <g>
    <text transform="translate(249.32 72.22)"><tspan class="cls-6"><tspan x="0" y="0">50%</tspan></tspan><tspan class="cls-10"><tspan x="-2.6" y="32">30 </tspan><tspan class="cls-7" x="17.24" y="32">х</tspan><tspan x="23.92" y="32">оног</tspan></tspan></text>
    <g>
      <path class="cls-2" d="m281.24,10.07c10.68,1.51,20.03,7.14,26.39,15.24.36.46.9.73,1.48.73h5.22c1.5,0,2.43-1.69,1.58-2.93-8.17-12.03-21.56-20.23-36.92-21.32-1.5-.11-2.5,1.53-1.75,2.84l2.62,4.53c.29.5.8.84,1.38.92Z"/>
      <path class="cls-3" d="m243.29,25.31c6.36-8.1,15.72-13.72,26.39-15.24.58-.08,1.09-.41,1.38-.92l2.62-4.53c.75-1.3-.25-2.95-1.75-2.84-15.36,1.1-28.75,9.3-36.92,21.32-.85,1.24.08,2.93,1.58,2.93h5.22c.58,0,1.12-.27,1.48-.73Z"/>
      <path class="cls-2" d="m316.12,71.96c.75,1.3,2.67,1.26,3.33-.09,3.13-6.45,4.9-13.68,4.9-21.33s-1.77-14.88-4.9-21.33c-.66-1.35-2.58-1.39-3.33-.09l-2.61,4.52c-.29.5-.33,1.11-.11,1.65,1.9,4.71,2.94,9.86,2.94,15.25s-1.05,10.54-2.94,15.25c-.22.54-.18,1.15.11,1.65l2.61,4.52Z"/>
      <path class="cls-3" d="m237.41,67.44c.29-.5.33-1.11.11-1.65-1.9-4.71-2.94-9.86-2.94-15.25s1.05-10.54,2.94-15.25c.22-.54.18-1.15-.11-1.65l-2.61-4.52c-.75-1.3-2.67-1.26-3.33.09-3.13,6.45-4.9,13.68-4.9,21.33s1.77,14.88,4.9,21.33c.66,1.35,2.58,1.39,3.33.09l2.61-4.52Z"/>
    </g>
  </g>
  <g>
    <text transform="translate(362.61 73.11)"><tspan class="cls-6"><tspan x="0" y="0">75%</tspan></tspan><tspan class="cls-10"><tspan x="-2.6" y="32">45 </tspan><tspan class="cls-7" x="17.24" y="32">х</tspan><tspan x="23.92" y="32">оног</tspan></tspan></text>
    <g>
      <path class="cls-3" d="m394.53,11.85c10.68,1.51,20.03,7.14,26.39,15.24.36.46.9.73,1.48.73h5.22c1.5,0,2.43-1.69,1.58-2.93-8.17-12.03-21.56-20.23-36.92-21.32-1.5-.11-2.5,1.53-1.75,2.84l2.62,4.53c.29.5.8.84,1.38.92Z"/>
      <path class="cls-3" d="m356.58,27.08c6.36-8.1,15.72-13.72,26.39-15.24.58-.08,1.09-.41,1.38-.92l2.62-4.53c.75-1.3-.25-2.95-1.75-2.84-15.36,1.1-28.75,9.3-36.92,21.32-.85,1.24.08,2.93,1.58,2.93h5.22c.58,0,1.12-.27,1.48-.73Z"/>
      <path class="cls-2" d="m429.41,73.74c.75,1.3,2.67,1.26,3.33-.09,3.13-6.45,4.9-13.68,4.9-21.33s-1.77-14.88-4.9-21.33c-.66-1.35-2.58-1.39-3.33-.09l-2.61,4.52c-.29.5-.33,1.11-.11,1.65,1.9,4.71,2.94,9.86,2.94,15.25s-1.05,10.54-2.94,15.25c-.22.54-.18,1.15.11,1.65l2.61,4.52Z"/>
      <path class="cls-3" d="m350.69,69.22c.29-.5.33-1.11.11-1.65-1.9-4.71-2.94-9.86-2.94-15.25s1.05-10.54,2.94-15.25c.22-.54.18-1.15-.11-1.65l-2.61-4.52c-.75-1.3-2.67-1.26-3.33.09-3.13,6.45-4.9,13.68-4.9,21.33s1.77,14.88,4.9,21.33c.66,1.35,2.58,1.39,3.33.09l2.61-4.52Z"/>
    </g>
  </g>
  <g>
    <g>
      <text class="cls-10"><tspan x="473.3" y="105.11">60 </tspan><tspan class="cls-7" x="493.13" y="105.11">х</tspan><tspan x="499.81" y="105.11">оног</tspan></text>
      <g>
        <path class="cls-3" d="m507.81,11.85c10.68,1.51,20.03,7.14,26.39,15.24.36.46.9.73,1.48.73h5.22c1.5,0,2.43-1.69,1.58-2.93-8.17-12.03-21.56-20.23-36.92-21.32-1.5-.11-2.5,1.53-1.75,2.84l2.62,4.53c.29.5.8.84,1.38.92Z"/>
        <path class="cls-3" d="m469.86,27.08c6.36-8.1,15.72-13.72,26.39-15.24.58-.08,1.09-.41,1.38-.92l2.62-4.53c.75-1.3-.25-2.95-1.75-2.84-15.36,1.1-28.75,9.3-36.92,21.32-.85,1.24.08,2.93,1.58,2.93h5.22c.58,0,1.12-.27,1.48-.73Z"/>
        <path class="cls-3" d="m542.7,73.74c.75,1.3,2.67,1.26,3.33-.09,3.13-6.45,4.9-13.68,4.9-21.33s-1.77-14.88-4.9-21.33c-.66-1.35-2.58-1.39-3.33-.09l-2.61,4.52c-.29.5-.33,1.11-.11,1.65,1.9,4.71,2.94,9.86,2.94,15.25s-1.05,10.54-2.94,15.25c-.22.54-.18,1.15.11,1.65l2.61,4.52Z"/>
        <path class="cls-3" d="m463.98,69.22c.29-.5.33-1.11.11-1.65-1.9-4.71-2.94-9.86-2.94-15.25s1.05-10.54,2.94-15.25c.22-.54.18-1.15-.11-1.65l-2.61-4.52c-.75-1.3-2.67-1.26-3.33.09-3.13,6.45-4.9,13.68-4.9,21.33s1.77,14.88,4.9,21.33c.66,1.35,2.58,1.39,3.33.09l2.61-4.52Z"/>
      </g>
    </g>
    <polygon class="cls-3" points="521.8 41.28 517.96 38.08 498.56 61.32 484.27 49.4 480.89 53.45 495.18 65.37 495.18 65.37 499.01 68.58 502.4 64.53 502.4 64.53 521.8 41.28"/>
  </g>
</svg>