<svg enable-background="new 0 0 750.22 229.48" viewBox="0 0 750.22 229.48" xmlns="http://www.w3.org/2000/svg"><path d="m129.99 35.67v17.56h-8.37c-28.47 0-51.64 21.16-51.64 49.63s23.18 49.5 51.64 49.5h25.32v-16.78h-25.32c-18.06.02-32.71-14.61-32.73-32.67s14.61-32.71 32.67-32.73h.05 25.32v-34.52z" fill="#ff7300"/><path d="m163.87 186.82v-17.58h8.37c28.47 0 51.65-21.16 51.65-49.63s-23.18-49.5-51.65-49.5h-25.32v16.78h25.32c18.06 0 32.7 14.64 32.7 32.7s-14.64 32.7-32.7 32.7h-25.32v34.51z"/><g transform="translate(-7613.725 -722.53)"><g fill="#ff6800"><path d="m7861.21 786.55h8.82c.95 0 1.72.77 1.72 1.72v81.17c0 .95-.77 1.72-1.72 1.72h-8.82c-.95 0-1.72-.77-1.72-1.72v-81.17c0-.95.77-1.72 1.72-1.72z"/><path d="m7913.22 861.68c8.31 0 13.28-2.77 16.2-8.06.48-.87 1.59-1.17 2.43-.64l7.02 4.44c.82.52 1.05 1.6.52 2.41-4.77 7.35-12.85 12.73-26.52 12.73-19.22 0-31.95-13.66-31.95-31.83 0-17.71 13.78-31.95 31.02-31.95 18.87 0 30.56 14.82 30.56 30.56 0 1.33-.05 2.71-.11 3.83-.05.91-.8 1.61-1.71 1.61h-45.45c-1.13 0-1.97 1.07-1.67 2.16 2.51 9.15 10.08 14.74 19.66 14.74zm15.16-26.28c1.1 0 1.92-1.03 1.67-2.1-2.2-9.06-8.92-14.57-17.64-14.57-8.83 0-16.26 5.31-18.74 14.53-.29 1.08.54 2.14 1.66 2.14z"/><path d="m8007.83 833.55v35.9c0 .95-.77 1.72-1.72 1.72h-8.83c-.95 0-1.72-.77-1.72-1.72v-33.7c0-10.07-6.02-16.09-15.74-15.97-9.15 0-15.86 6.71-15.98 14.24v35.44c0 .95-.77 1.72-1.72 1.72h-8.82c-.95 0-1.72-.77-1.72-1.72v-57.56c0-.95.77-1.72 1.72-1.72h8.13c.95 0 1.72.77 1.72 1.72v6.03c4.17-5.33 11.11-9.15 20.14-9.15 15.28 0 24.54 9.84 24.54 24.77z"/><path d="m8079.83 788.28v81.17c0 .95-.77 1.72-1.72 1.72h-7.9c-.95 0-1.72-.77-1.72-1.72v-7.77c-4.75 6.83-12.27 10.88-21.53 10.88-17.48 0-30.1-13.66-30.1-31.95 0-18.06 12.39-31.72 29.75-31.72 8.8 0 16.09 3.59 20.95 9.72v-30.34c0-.95.77-1.72 1.72-1.72h8.82c.95 0 1.73.77 1.73 1.73zm-11.81 52.33c0-12.27-7.87-20.95-19.56-20.95-11.11 0-19.45 9.03-19.45 20.95 0 12.16 8.22 21.07 19.45 21.07 11.57 0 19.56-8.68 19.56-21.07z"/></g><g><path d="m8155 839.92c0 18.55-12.99 32.48-30.71 32.48-8.98 0-16.18-3.54-21.03-9.69v29.41h-12.52v-83.4h11.58v9.81c4.96-6.97 12.64-11.11 22.21-11.11 17.83.01 30.47 13.95 30.47 32.5zm-12.4 0c0-12.4-8.39-21.5-19.85-21.5-11.81 0-20.08 8.86-20.08 21.5s8.15 21.38 20.08 21.38c11.35 0 19.85-9.1 19.85-21.38z"/><path d="m8227.78 808.73v62.25h-11.58v-10.16c-4.73 7.21-12.29 11.58-21.97 11.58-17.84 0-30.71-13.94-30.71-32.6 0-18.43 12.99-31.66 30.71-31.66 9.69 0 17.25 4.02 21.97 11.11v-10.51h11.58zm-12.05 31.07c0-12.52-8.03-21.38-19.96-21.38-11.34 0-19.85 9.21-19.85 21.38 0 12.41 8.39 21.5 19.85 21.5 11.81 0 19.96-8.86 19.96-21.5z"/><path d="m8299.73 808.73-24.57 62.25-8.27 21.15h-12.28l8.5-21.15h-3.54l-23.15-62.25h12.88l18.07 51.98 19.37-51.98z"/></g></g></svg>